<svg width="14" height="14" viewBox="0 0 14 14" fill="none" xmlns="http://www.w3.org/2000/svg">
<path fill-rule="evenodd" clip-rule="evenodd" d="M5.48384 1.75049C6.15729 0.583172 7.84204 0.583171 8.51549 1.75049L12.8055 9.18653C13.4786 10.3532 12.6366 11.811 11.2897 11.811H2.70964C1.36274 11.811 0.520739 10.3532 1.19382 9.18653L5.48384 1.75049ZM6.99979 4.811C7.24141 4.811 7.43729 5.00688 7.43729 5.2485V7.43601C7.43729 7.67763 7.24141 7.87351 6.99979 7.87351C6.75816 7.87351 6.56229 7.67763 6.56229 7.43601V5.2485C6.56229 5.00688 6.75816 4.811 6.99979 4.811ZM6.99979 9.62351C7.24141 9.62351 7.43729 9.42763 7.43729 9.18601C7.43729 8.94438 7.24141 8.74851 6.99979 8.74851C6.75816 8.74851 6.56229 8.94438 6.56229 9.18601C6.56229 9.42763 6.75816 9.62351 6.99979 9.62351Z" fill="black"/>
</svg>
